
<svg width="769px" height="456px" viewBox="0 0 769 456" version="1.1" xmlns="http://www.w3.org/2000/svg" xmlns:xlink="http://www.w3.org/1999/xlink">
  <!-- Generator: Sketch 46.1 (44463) - http://www.bohemiancoding.com/sketch -->
  <desc>Created with Sketch.</desc>
  <defs></defs>
  <g id="Page-1" stroke="none" stroke-width="1" fill="none" fill-rule="evenodd">
    <g>
      <path d="M537.2187,274.3787 L536.2867,275.7587 C535.0517,275.5977 533.7707,275.5937 532.5867,275.2527 C520.2387,271.6897 508.0327,272.0227 496.2917,277.3137 C489.7727,280.2517 483.4747,283.7767 477.3717,287.5197 C471.4147,291.1727 466.3037,296.1497 464.9787,303.2187 C463.9227,308.8557 464.4287,314.7867 464.2657,320.5867 C464.2567,320.9067 464.4157,321.2707 464.5967,321.5487 C466.3067,324.1827 467.7757,327.0287 469.8107,329.3837 C477.0817,337.7947 486.6167,340.1097 497.2817,338.9997 C497.8767,338.9367 498.4607,338.6537 499.0237,338.4107 C502.4737,336.9167 505.7907,334.9057 509.3877,333.9977 C517.6147,331.9197 525.9787,330.3797 534.2847,328.6207 C540.7787,327.2457 547.3257,326.0827 553.7397,324.4017 C556.9867,323.5497 560.4127,322.3527 562.4717,319.3517 C566.1077,314.0497 567.7457,308.0077 568.5577,301.7007 C568.8807,299.1867 569.4377,296.6917 569.5827,294.1707 C569.6857,292.3877 569.5897,290.4717 569.0347,288.7957 C567.6147,284.5027 564.6557,281.1987 561.1467,278.5037 C554.5227,273.4197 547.7557,268.5207 541.0527,263.5387 C539.8987,262.6817 538.8547,261.6187 537.5917,260.9847 C536.7417,260.5577 535.5107,260.4127 534.6007,260.6727 C531.5117,261.5537 528.4847,262.6517 525.4487,263.7117 C524.7827,263.9437 524.1827,264.3637 523.5527,264.6977 C524.0547,265.3727 524.4247,266.2337 525.0787,266.6907 C528.3907,269.0027 531.7647,271.2257 535.1437,273.4387 C535.7717,273.8497 536.5237,274.0697 537.2187,274.3787 L537.2187,274.3787 Z M193.8017,379.5117 L193.8017,379.3007 C203.5437,379.3007 213.2877,379.4167 223.0277,379.2757 C239.7657,379.0327 256.5017,378.6357 273.2377,378.2827 C274.3287,378.2587 275.4377,378.1447 276.5007,377.9057 C277.5887,377.6607 277.8817,376.7597 277.0287,376.1087 C275.5717,374.9957 274.0297,373.7867 272.3237,373.2397 C266.2107,371.2817 259.8797,369.9437 253.8907,367.6807 C248.6787,365.7127 243.4037,363.4007 238.8797,360.2127 C225.3937,350.7107 218.2407,337.0487 214.8237,321.1927 C214.0467,317.5837 213.1557,313.9977 212.2187,310.4257 C211.1077,306.1957 209.8757,301.9967 208.7217,297.7767 C207.6407,293.8217 206.9457,289.7127 205.4107,285.9457 C204.3197,283.2667 203.9727,280.6767 204.1757,277.9627 C204.6487,271.6167 202.7757,265.0947 205.5637,258.8977 C205.7037,258.5867 205.0287,257.5807 204.5427,257.3937 C203.8187,257.1147 202.9247,257.2547 202.1017,257.2547 C180.2817,257.2507 158.4607,257.2507 136.6397,257.2507 C129.1597,257.2507 121.6807,257.2417 114.2007,257.2587 C111.2127,257.2657 110.8367,257.6507 110.7797,260.5287 C110.7717,260.9407 110.7757,261.3517 110.7757,261.7637 C110.7747,299.2297 110.7747,336.6957 110.7757,374.1617 C110.7757,375.1227 110.7857,376.0837 110.8107,377.0437 C110.8487,378.5327 111.6837,379.3047 113.1077,379.4467 C113.9247,379.5277 114.7527,379.5097 115.5747,379.5097 C141.6507,379.5117 167.7257,379.5117 193.8017,379.5117 L193.8017,379.5117 Z M198.7447,76.3397 C164.1037,76.3397 139.3987,76.3377 114.6937,76.3427 C111.1537,76.3427 110.7797,76.7197 110.7797,80.2137 C110.7767,112.8787 110.7757,145.5447 110.7797,178.2107 C110.7797,181.2457 111.3607,181.8287 114.3487,181.8847 C114.8977,181.8947 115.4467,181.8897 115.9957,181.8877 C150.8547,181.7847 185.7137,181.7447 220.5727,181.5447 C233.5387,181.4697 246.5067,181.1177 259.4647,180.6417 C261.6437,180.5617 263.8497,179.3597 265.9107,178.3947 C268.3797,177.2377 270.6697,175.7047 273.1047,174.4677 C276.3287,172.8297 279.7407,171.5287 282.8517,169.7067 C287.7867,166.8167 290.3367,161.6527 293.8857,157.4387 C299.3927,150.8967 304.6537,144.1037 310.6307,138.0187 C313.9637,134.6257 318.4287,132.2707 322.5917,129.7977 C324.7287,128.5287 326.0457,127.3117 325.5787,124.6917 C325.0287,121.6067 324.7107,118.4767 324.1007,115.4037 C322.5787,107.7417 318.7727,101.2607 313.4497,95.6467 C304.7837,86.5057 293.6527,81.9507 281.6457,79.7137 C273.3247,78.1637 264.7897,77.2817 256.3257,77.0707 C233.8277,76.5107 211.3167,76.4757 198.7447,76.3397 L198.7447,76.3397 Z M360.7237,153.2737 C360.6927,152.9497 360.6627,152.6267 360.6317,152.3027 C356.6167,153.0717 352.5437,153.6207 348.5997,154.6607 C341.5207,156.5267 335.0717,159.6587 330.4937,165.6517 C327.0487,170.1617 323.6247,174.7087 320.5267,179.4577 C315.8997,186.5497 309.7837,191.7987 302.2287,195.4867 C298.3577,197.3767 294.4307,199.1747 290.6817,201.2857 C284.8607,204.5657 281.9367,210.2627 279.5617,216.0947 C277.0447,222.2777 275.0807,228.6907 272.9777,235.0367 C271.3877,239.8367 268.8527,243.7477 264.6767,246.8777 C258.1097,251.7977 251.8327,257.1227 245.6177,262.4897 C242.5917,265.1037 240.6787,268.3257 241.6207,272.7867 C243.5147,281.7617 245.1387,290.7947 246.8437,299.8087 C247.3657,302.5667 247.5307,305.4187 248.3047,308.0967 C250.1627,314.5267 252.0717,320.9607 254.3957,327.2297 C255.5097,330.2327 257.0517,333.5207 259.3857,335.5397 C264.8317,340.2527 271.0807,343.6897 278.7977,342.6357 C279.6107,342.5247 280.4497,342.5937 281.2607,342.4737 C284.4067,342.0097 286.8427,343.2077 289.3617,345.0917 C296.5867,350.4967 303.9077,355.7947 311.4317,360.7707 C317.4477,364.7497 324.3337,366.7867 331.4607,367.6677 C334.4817,368.0407 337.6807,368.0287 340.6617,367.4667 C348.4597,365.9977 355.4697,362.5187 361.6507,357.6037 C367.2687,353.1367 372.3047,348.1907 373.1797,340.3787 C373.5067,337.4697 374.8677,336.7687 377.8957,336.7497 C381.4497,336.7257 385.0077,336.5727 388.5577,336.6757 C392.8777,336.8017 396.5677,335.2507 400.0497,332.9077 C404.6467,329.8157 409.3147,326.8277 413.8667,323.6717 C416.3317,321.9647 418.8297,320.2127 420.9367,318.1057 C424.1257,314.9147 424.3617,312.0887 422.3977,308.0267 C421.0627,305.2657 422.2087,303.1687 425.3057,303.0177 C427.2117,302.9257 429.1487,303.0937 431.0487,303.3287 C436.5967,304.0127 441.8007,303.4097 446.5527,300.0977 C450.7627,297.1637 455.1827,294.5327 459.4237,291.6407 C467.0117,286.4657 474.5917,281.2547 480.8397,274.4207 C484.7487,270.1447 485.6737,265.0347 484.5627,259.4767 C484.2157,257.7417 483.6507,256.0487 483.3417,254.3087 C482.3567,248.7427 483.9337,247.3497 489.9137,248.7867 C493.1687,249.5687 496.5277,250.8697 499.7437,250.6377 C504.3157,250.3067 509.0837,249.4297 513.2547,247.6107 C519.6187,244.8357 525.7227,241.3377 531.6067,237.6237 C538.0147,233.5767 544.5457,229.4797 550.1057,224.3997 C556.0597,218.9577 557.0607,213.9237 553.5527,207.9407 C550.8517,203.3317 547.3087,199.1257 543.6617,195.1827 C537.8437,188.8897 531.5547,183.0547 523.9347,178.8897 C517.8207,175.5467 511.7587,172.1047 505.5797,168.8847 C500.2437,166.1047 494.6187,163.8237 490.1387,159.6457 C487.2327,156.9347 484.5097,154.0227 481.5537,151.3677 C474.0787,144.6547 466.2407,138.4787 456.3657,135.5857 C448.9017,133.3987 441.4627,132.5287 433.7007,134.4957 C424.9677,136.7087 416.8337,140.1197 409.3037,144.9807 C404.2617,148.2347 399.0377,151.1137 393.1387,152.3067 C389.6787,153.0067 386.0737,153.1677 382.5277,153.2327 C375.2617,153.3667 367.9917,153.2737 360.7237,153.2737 L360.7237,153.2737 Z M0.2607,455.5537 L0.2607,451.9567 L0.2607,45.6847 C0.2607,31.7517 0.2607,17.8167 0.2617,3.8837 C0.2627,0.7497 0.2677,0.7457 3.4717,0.7457 C134.5717,0.7437 265.6717,0.7437 396.7717,0.7437 C408.1657,0.7437 419.5597,0.7967 430.9527,0.6987 C433.0067,0.6807 434.4347,1.4467 435.8617,2.7387 C449.1227,14.7517 462.4077,26.7377 475.6987,38.7167 C491.5367,52.9897 507.3887,67.2487 523.2337,81.5157 C542.2377,98.6287 561.2487,115.7327 580.2397,132.8597 C595.2097,146.3607 610.1427,159.9027 625.1107,173.4057 C635.0857,182.4057 645.0867,191.3757 655.1047,200.3297 C655.7747,200.9287 656.6717,201.2747 657.9697,202.0347 C658.0567,200.3717 658.1657,199.2567 658.1657,198.1427 C658.1747,138.1517 658.1737,78.1627 658.1747,18.1717 C658.1747,13.2307 658.2357,8.2867 658.1467,3.3467 C658.1117,1.3837 658.8227,0.7117 660.7907,0.7147 C696.0027,0.7547 731.2137,0.7517 766.4257,0.7117 C768.1977,0.7107 769.0167,1.2527 768.8037,3.0687 C768.7567,3.4747 768.7977,3.8917 768.7977,4.3037 L768.7977,451.9637 L768.7977,455.5657 C767.7467,455.6117 767.0167,455.6707 766.2857,455.6707 C731.1427,455.6757 695.9997,455.6747 660.8577,455.6737 C658.1767,455.6737 658.1747,455.6707 658.1747,452.9787 C658.1747,409.2557 658.1597,365.5337 658.2217,321.8107 C658.2257,319.3997 657.5317,317.7477 655.6567,316.1767 C640.3707,303.3767 625.1707,290.4747 609.9317,277.6197 C609.0757,276.8987 608.1037,276.3157 607.1847,275.6677 C607.0077,275.7807 606.8297,275.8927 606.6537,276.0047 C606.7837,276.6527 606.9087,277.3017 607.0487,277.9477 C607.5937,280.4687 608.4377,282.9677 608.6197,285.5137 C608.8907,289.2697 608.7147,293.0597 608.6697,296.8337 C608.6607,297.6317 608.6457,298.6107 608.2127,299.1937 C605.6127,302.6977 605.9117,306.9937 604.9627,310.9197 C603.9987,314.9007 604.2237,319.2367 602.8677,323.0397 C601.1677,327.8067 598.6787,332.3697 596.0067,336.6977 C591.8497,343.4297 585.0707,347.1327 578.2537,350.5587 C572.2057,353.5987 565.5677,354.8497 558.9697,356.0567 C553.3797,357.0807 547.6907,357.6067 542.1437,358.8077 C537.3497,359.8457 532.6837,361.4887 527.9807,362.9277 C523.0107,364.4507 518.1017,366.1847 513.0957,367.5767 C508.5597,368.8367 503.9137,369.6967 499.3467,370.8527 C494.6527,372.0407 489.9667,371.8497 485.2477,371.1297 C483.4857,370.8607 481.6947,370.7637 479.9447,370.4377 C477.7687,370.0327 476.5007,371.1217 475.3597,372.7527 C469.3237,381.3827 463.2547,389.9887 457.1877,398.5957 C450.4907,408.0957 443.7877,417.5917 437.0787,427.0827 C431.1957,435.4037 425.2807,443.7017 419.4347,452.0487 C418.7657,453.0047 418.4497,454.2097 417.8577,455.5537 L0.2607,455.5537 Z" id="Fill-4" fill="#b8322d"></path>
      <path d="M360.7236,153.2732 C367.9916,153.2732 375.2626,153.3672 382.5276,153.2332 C386.0736,153.1682 389.6786,153.0072 393.1386,152.3072 C399.0376,151.1132 404.2626,148.2352 409.3036,144.9812 C416.8336,140.1192 424.9676,136.7092 433.7006,134.4962 C441.4626,132.5292 448.9016,133.3982 456.3656,135.5852 C466.2416,138.4792 474.0786,144.6552 481.5536,151.3682 C484.5096,154.0222 487.2326,156.9342 490.1386,159.6452 C494.6196,163.8232 500.2446,166.1052 505.5796,168.8852 C511.7586,172.1042 517.8206,175.5472 523.9346,178.8892 C531.5546,183.0542 537.8436,188.8902 543.6616,195.1822 C547.3086,199.1262 550.8516,203.3322 553.5526,207.9402 C557.0606,213.9232 556.0596,218.9572 550.1056,224.3992 C544.5456,229.4792 538.0146,233.5762 531.6066,237.6232 C525.7226,241.3382 519.6186,244.8352 513.2546,247.6102 C509.0836,249.4302 504.3156,250.3072 499.7446,250.6372 C496.5276,250.8702 493.1686,249.5682 489.9136,248.7872 C483.9336,247.3492 482.3566,248.7432 483.3416,254.3082 C483.6506,256.0482 484.2156,257.7422 484.5626,259.4772 C485.6736,265.0342 484.7486,270.1442 480.8396,274.4202 C474.5916,281.2552 467.0116,286.4652 459.4236,291.6402 C455.1826,294.5322 450.7626,297.1632 446.5526,300.0972 C441.8006,303.4092 436.5966,304.0132 431.0486,303.3282 C429.1486,303.0942 427.2116,302.9262 425.3066,303.0182 C422.2086,303.1682 421.0626,305.2662 422.3976,308.0262 C424.3616,312.0892 424.1256,314.9142 420.9366,318.1062 C418.8296,320.2132 416.3316,321.9652 413.8676,323.6722 C409.3146,326.8272 404.6466,329.8152 400.0496,332.9072 C396.5676,335.2502 392.8776,336.8022 388.5576,336.6762 C385.0076,336.5722 381.4506,336.7262 377.8956,336.7492 C374.8676,336.7692 373.5066,337.4702 373.1806,340.3792 C372.3046,348.1902 367.2686,353.1372 361.6506,357.6042 C355.4696,362.5192 348.4596,365.9972 340.6616,367.4672 C337.6806,368.0282 334.4816,368.0402 331.4606,367.6672 C324.3336,366.7862 317.4476,364.7492 311.4316,360.7712 C303.9076,355.7952 296.5866,350.4962 289.3616,345.0922 C286.8426,343.2072 284.4066,342.0102 281.2606,342.4742 C280.4496,342.5942 279.6106,342.5242 278.7976,342.6362 C271.0806,343.6892 264.8316,340.2522 259.3856,335.5392 C257.0516,333.5212 255.5096,330.2322 254.3956,327.2302 C252.0716,320.9602 250.1626,314.5262 248.3046,308.0972 C247.5306,305.4182 247.3656,302.5662 246.8436,299.8092 C245.1386,290.7942 243.5156,281.7622 241.6206,272.7872 C240.6796,268.3252 242.5916,265.1042 245.6186,262.4892 C251.8326,257.1222 258.1096,251.7982 264.6766,246.8772 C268.8526,243.7482 271.3876,239.8372 272.9776,235.0372 C275.0806,228.6902 277.0446,222.2782 279.5616,216.0952 C281.9366,210.2622 284.8606,204.5652 290.6816,201.2862 C294.4306,199.1742 298.3576,197.3772 302.2286,195.4872 C309.7846,191.7992 315.8996,186.5492 320.5266,179.4572 C323.6246,174.7082 327.0486,170.1612 330.4936,165.6512 C335.0716,159.6582 341.5206,156.5262 348.5996,154.6602 C352.5436,153.6212 356.6176,153.0722 360.6316,152.3022 C360.6626,152.6262 360.6926,152.9492 360.7236,153.2732" id="Fill-6" fill="#FFFFFF"></path>
      <path d="M537.2187,274.3787 C536.5237,274.0697 535.7717,273.8497 535.1437,273.4387 C531.7647,271.2257 528.3907,269.0027 525.0787,266.6907 C524.4247,266.2337 524.0547,265.3727 523.5527,264.6977 C524.1827,264.3637 524.7827,263.9437 525.4487,263.7117 C528.4847,262.6517 531.5117,261.5537 534.6007,260.6727 C535.5107,260.4127 536.7417,260.5577 537.5917,260.9847 C538.8547,261.6187 539.8987,262.6817 541.0527,263.5387 C547.7557,268.5207 554.5227,273.4197 561.1467,278.5037 C564.6557,281.1987 567.6147,284.5027 569.0347,288.7957 C569.5897,290.4717 569.6857,292.3877 569.5827,294.1707 C569.4377,296.6917 568.8807,299.1867 568.5577,301.7007 C567.7457,308.0077 566.1077,314.0497 562.4717,319.3517 C560.4127,322.3527 556.9867,323.5497 553.7397,324.4017 C547.3257,326.0827 540.7787,327.2457 534.2847,328.6207 C525.9787,330.3797 517.6147,331.9197 509.3877,333.9977 C505.7907,334.9057 502.4737,336.9167 499.0237,338.4107 C498.4607,338.6537 497.8767,338.9367 497.2817,338.9997 C486.6167,340.1097 477.0817,337.7947 469.8107,329.3837 C467.7757,327.0287 466.3067,324.1827 464.5967,321.5487 C464.4157,321.2707 464.2567,320.9067 464.2657,320.5867 C464.4287,314.7867 463.9227,308.8557 464.9787,303.2187 C466.3037,296.1497 471.4147,291.1727 477.3717,287.5197 C483.4747,283.7767 489.7727,280.2517 496.2917,277.3137 C508.0327,272.0227 520.2387,271.6897 532.5867,275.2527 C533.7707,275.5937 535.0517,275.5977 536.2867,275.7587 L537.2187,274.3787 Z" id="Fill-12" fill="#FFFFFF"></path>
    </g>
  </g>
</svg>
