
<svg width="508px" height="442px" viewBox="0 0 508 442" version="1.1" xmlns="http://www.w3.org/2000/svg" xmlns:xlink="http://www.w3.org/1999/xlink">
  <!-- Generator: Sketch 46.1 (44463) - http://www.bohemiancoding.com/sketch -->
  <desc>Created with Sketch.</desc>
  <defs></defs>
  <g id="Page-1" stroke="none" stroke-width="1" fill="none" fill-rule="evenodd">
    <g transform="translate(-1.000000, 0.000000)">
      <path d="M400.2029,241.0592 C405.9319,245.6092 411.0989,249.6842 416.2249,253.8092 C417.1979,254.5922 418.8049,255.2902 418.0159,256.9212 C417.2129,258.5812 415.7139,257.6522 414.4879,257.3812 C413.6819,257.2032 412.9129,256.8592 412.1169,256.6252 C396.6949,252.0902 381.6129,252.3402 367.1809,260.1212 C361.4829,263.1942 355.8489,266.4122 350.3789,269.8692 C334.9559,279.6162 327.0769,293.0272 326.3899,311.9492 C325.7799,328.7182 338.2399,346.8552 353.0099,350.3182 C360.6069,352.0992 367.7069,352.7712 374.5509,348.2962 C380.7659,344.2322 387.6839,341.9972 394.8969,340.4852 C399.9339,339.4282 404.9409,338.2182 409.9389,336.9862 C419.1179,334.7222 428.3489,332.6292 437.4279,330.0162 C445.3519,327.7352 450.7609,322.9972 453.3279,314.4712 C455.8989,305.9282 456.5909,297.1972 458.2549,288.5762 C460.4509,277.1962 455.7439,268.7732 447.9819,261.5292 C438.6309,252.8022 428.4149,245.0282 419.4019,235.9132 C418.3009,234.7992 417.2169,234.0742 415.4599,234.8302 C410.6419,236.9042 405.7509,238.8092 400.2029,241.0592 M225.2979,348.0642 C231.3559,347.5842 237.7119,348.7002 243.0499,344.4722 C251.9089,337.4552 261.0819,330.8112 269.6189,323.4272 C274.6399,319.0832 277.7989,313.7552 274.5799,306.1992 C271.7089,299.4622 274.0329,297.0022 281.4639,297.3782 C283.6189,297.4872 285.7549,297.9312 287.9079,298.1382 C292.0959,298.5412 296.4669,298.7652 300.0159,296.3122 C316.6229,284.8372 332.4449,272.3832 345.9429,257.2572 C351.1929,251.3732 353.3549,244.3622 352.1529,236.4562 C351.5789,232.6792 350.9369,228.9122 350.3609,225.1352 C349.0919,216.8092 351.0509,214.4802 358.9799,217.0742 C372.7129,221.5662 384.5029,218.3932 396.1869,210.8342 C407.1289,203.7552 417.3519,195.8172 427.4269,187.6292 C442.0939,175.7082 444.9199,163.7332 433.7559,147.4342 C419.1309,126.0822 400.2629,109.7942 377.5089,97.7322 C369.0979,93.2742 361.4939,87.9022 355.4159,80.2092 C347.6689,70.4052 338.8979,61.3852 328.2959,54.5722 C315.2669,46.2022 301.4169,42.9792 286.0469,48.0952 C274.7859,51.8422 264.8999,57.7232 255.5859,64.8262 C246.5769,71.6962 236.6429,75.7762 225.0799,75.1902 C217.7699,74.8192 210.4529,74.5682 203.1369,74.3552 C183.4299,73.7812 167.2099,80.0892 156.8169,97.8932 C153.5439,103.4992 149.9239,108.9142 146.8689,114.6332 C140.6709,126.2302 131.5229,134.6012 119.8629,140.4102 C109.2109,145.7172 101.4629,153.2592 97.1719,164.9252 C93.1339,175.9032 90.3489,187.1522 87.2259,198.3422 C85.3289,205.1402 81.7049,210.4592 76.4309,215.2462 C67.3409,223.4962 57.7059,231.2772 50.5479,241.4832 C48.2859,244.7072 47.7499,247.9852 48.4199,251.8292 C50.1329,261.6572 51.4889,271.5452 53.1379,281.3842 C55.7479,296.9552 57.2759,312.7542 62.3189,327.8292 C64.5179,334.4052 65.7819,341.6252 70.9609,346.6742 C77.9559,353.4922 85.9729,358.3612 96.4629,356.2412 C101.3139,355.2602 104.8869,357.1152 108.3969,360.5552 C117.6579,369.6312 127.1949,378.3622 138.2959,385.3422 C158.1089,397.8002 176.0699,397.0772 194.4329,382.3172 C202.2119,376.0662 208.7999,368.8002 211.7229,359.0232 C212.7529,355.5772 211.8619,350.9372 214.5829,348.7162 C217.3159,346.4882 221.6679,348.4032 225.2979,348.0642 M295.7629,1.4732 C331.2169,0.6712 359.2509,16.1992 382.1949,41.9722 C390.3399,51.1202 399.6579,58.5252 409.6929,65.3632 C432.7179,81.0552 452.9329,99.8612 469.9829,121.9242 C477.8179,132.0632 482.6399,143.6032 484.2419,156.4552 C484.7729,160.7162 485.9989,164.8452 486.1729,169.2272 C486.8329,185.8162 483.0279,201.5672 477.4269,216.9432 C476.2849,220.0782 477.4749,221.5752 479.3049,223.3392 C485.9969,229.7932 492.8159,236.1842 498.1749,243.8042 C504.1459,252.2992 508.0449,261.6922 508.0969,272.3312 C508.1049,274.1642 508.1689,276.0012 508.0819,277.8302 C507.7689,284.3512 508.3879,290.7482 506.0769,297.3352 C503.2959,305.2602 503.4179,314.0282 501.9749,322.3512 C498.9329,339.9002 491.0309,354.6852 475.9489,365.2692 C464.8489,373.0582 452.1849,376.6842 439.3569,378.6212 C423.7019,380.9842 409.2939,386.4922 394.7179,391.9742 C385.8859,395.2962 377.0779,399.0062 367.5719,399.8882 C354.4059,401.1102 341.8989,398.5602 330.0789,392.5032 C325.4739,390.1442 320.8419,387.7732 317.0229,384.3382 C314.0359,381.6532 311.0649,380.6382 307.1419,381.1552 C302.3649,381.7842 297.5309,382.0042 292.7159,382.3132 C289.1289,382.5432 286.3549,383.9602 283.4769,386.3072 C277.0419,391.5542 269.9849,396.0002 261.5329,397.4482 C258.9089,397.8982 256.9639,399.2802 255.4129,401.3722 C245.4639,414.8032 232.2909,423.5882 216.9809,430.2132 C199.7599,437.6642 182.3519,442.2672 163.4809,441.1282 C146.8899,440.1272 131.6559,435.6852 117.9439,425.9882 C109.4369,419.9712 100.5779,414.4452 92.9929,407.2382 C87.7849,402.2892 80.9219,401.2972 74.5579,399.1482 C53.1839,391.9302 35.8209,379.8722 25.3299,359.2302 C19.7959,348.3392 16.3589,336.7612 14.2099,324.8312 C11.7049,310.9312 8.9299,297.0542 5.0029,283.5402 C0.5909,268.3582 0.5399,253.0272 1.4489,237.6632 C1.8419,231.0072 5.5019,224.7732 9.0769,218.9852 C17.6379,205.1212 29.4439,194.1722 41.6269,183.6422 C44.1959,181.4212 45.6339,179.0072 46.4009,175.8392 C49.5159,162.9702 52.0269,149.8902 58.3319,138.0382 C66.5399,122.6082 77.3009,109.7832 93.9999,102.8722 C99.0069,100.7992 102.9309,97.0122 105.8769,92.5022 C113.7559,80.4442 121.1669,68.0572 130.1459,56.7672 C140.3249,43.9712 153.3109,35.4602 169.1969,30.9492 C186.8849,25.9252 204.9489,25.4192 223.0699,25.0462 C227.2189,24.9612 230.9199,24.0102 234.3139,21.7062 C247.5769,12.7012 262.4269,6.9122 277.3979,1.7782 C282.9069,-0.1108 289.6059,1.4732 295.7629,1.4732" id="Fill-4" fill="#030101"></path>
      <path d="M225.2981,348.0641 C221.6681,348.4031 217.3161,346.4881 214.5831,348.7161 C211.8611,350.9371 212.7531,355.5771 211.7231,359.0231 C208.7991,368.8001 202.2121,376.0661 194.4331,382.3171 C176.0691,397.0771 158.1091,397.8001 138.2961,385.3421 C127.1941,378.3621 117.6581,369.6311 108.3971,360.5551 C104.8861,357.1151 101.3141,355.2601 96.4631,356.2411 C85.9731,358.3611 77.9561,353.4921 70.9611,346.6741 C65.7811,341.6261 64.5181,334.4051 62.3191,327.8291 C57.2761,312.7541 55.7481,296.9551 53.1381,281.3841 C51.4891,271.5451 50.1321,261.6571 48.4201,251.8291 C47.7501,247.9851 48.2851,244.7081 50.5481,241.4831 C57.7061,231.2771 67.3411,223.4961 76.4301,215.2461 C81.7051,210.4591 85.3291,205.1401 87.2261,198.3421 C90.3491,187.1521 93.1341,175.9031 97.1721,164.9251 C101.4631,153.2591 109.2111,145.7171 119.8621,140.4101 C131.5231,134.6011 140.6711,126.2301 146.8681,114.6331 C149.9241,108.9151 153.5441,103.5001 156.8171,97.8941 C167.2101,80.0891 183.4301,73.7811 203.1361,74.3551 C210.4531,74.5681 217.7701,74.8191 225.0801,75.1901 C236.6431,75.7761 246.5761,71.6961 255.5861,64.8261 C264.9001,57.7231 274.7861,51.8421 286.0471,48.0951 C301.4171,42.9791 315.2671,46.2021 328.2961,54.5721 C338.8981,61.3851 347.6691,70.4051 355.4161,80.2091 C361.4941,87.9021 369.0971,93.2741 377.5081,97.7321 C400.2621,109.7941 419.1311,126.0821 433.7561,147.4341 C444.9201,163.7331 442.0931,175.7081 427.4261,187.6291 C417.3521,195.8171 407.1291,203.7551 396.1871,210.8341 C384.5031,218.3941 372.7131,221.5661 358.9801,217.0741 C351.0501,214.4801 349.0911,216.8091 350.3611,225.1351 C350.9371,228.9121 351.5791,232.6791 352.1531,236.4571 C353.3551,244.3621 351.1931,251.3731 345.9431,257.2571 C332.4451,272.3831 316.6231,284.8371 300.0161,296.3121 C296.4661,298.7651 292.0951,298.5421 287.9081,298.1381 C285.7551,297.9311 283.6191,297.4871 281.4641,297.3781 C274.0331,297.0021 271.7091,299.4621 274.5801,306.1991 C277.7981,313.7551 274.6391,319.0841 269.6181,323.4271 C261.0821,330.8111 251.9081,337.4561 243.0501,344.4721 C237.7121,348.7001 231.3561,347.5851 225.2981,348.0641" id="Fill-6" fill="#FDFDFD"></path>
      <path d="M400.2029,241.0592 C405.7509,238.8092 410.6419,236.9042 415.4599,234.8302 C417.2169,234.0742 418.3009,234.7992 419.4019,235.9132 C428.4149,245.0282 438.6309,252.8022 447.9819,261.5292 C455.7439,268.7732 460.4509,277.1962 458.2549,288.5762 C456.5909,297.1972 455.8989,305.9282 453.3279,314.4712 C450.7609,322.9972 445.3519,327.7352 437.4279,330.0162 C428.3489,332.6292 419.1179,334.7222 409.9389,336.9862 C404.9409,338.2182 399.9339,339.4282 394.8969,340.4852 C387.6839,341.9972 380.7659,344.2322 374.5509,348.2962 C367.7069,352.7712 360.6069,352.0992 353.0099,350.3182 C338.2399,346.8552 325.7799,328.7182 326.3899,311.9492 C327.0769,293.0272 334.9559,279.6162 350.3789,269.8692 C355.8489,266.4122 361.4829,263.1942 367.1809,260.1212 C381.6129,252.3402 396.6949,252.0902 412.1169,256.6252 C412.9129,256.8592 413.6819,257.2032 414.4879,257.3812 C415.7139,257.6522 417.2129,258.5812 418.0159,256.9212 C418.8049,255.2902 417.1979,254.5922 416.2249,253.8092 C411.0989,249.6842 405.9319,245.6092 400.2029,241.0592" id="Fill-8" fill="#FDFDFD"></path>
    </g>
  </g>
</svg>
